Coordinates
version=1
nRows=10
nColumns=40
inDegrees=yes

Units are S.I. units (second, meters, Newtons, ...)
Angles are in degrees.

endheader
time	pelvis_tilt	pelvis_list	pelvis_rotation	pelvis_tx	pelvis_ty	pelvis_tz	hip_flexion_r	hip_adduction_r	hip_rotation_r	knee_angle_r	knee_angle_r_beta	ankle_angle_r	subtalar_angle_r	mtp_angle_r	hip_flexion_l	hip_adduction_l	hip_rotation_l	knee_angle_l	knee_angle_l_beta	ankle_angle_l	subtalar_angle_l	mtp_angle_l	lumbar_extension	lumbar_bending	lumbar_rotation	arm_flex_r	arm_add_r	arm_rot_r	elbow_flex_r	pro_sup_r	wrist_flex_r	wrist_dev_r	arm_flex_l	arm_add_l	arm_rot_l	elbow_flex_l	pro_sup_l	wrist_flex_l	wrist_dev_l
      0.00000000	     -5.98462119	     -1.33951840	     -4.05792061	     -1.03639140	      0.88902439	      1.10668948	     -5.68010182	     -2.60257537	    -22.63677198	    -16.90900137	     -0.29511775	      7.87773267	      4.96892370	     -2.32366157	     35.72106157	      4.28688458	     14.51327818	    -26.98249201	     -0.47093333	      6.11608550	     11.53546599	     -1.28360928	     -4.53945553	      2.55045628	      4.00939087	      3.15828331	    -16.42701962	    -18.66210308	     62.22662353	     89.95437384	      0.00000000	      0.00000000	    -10.55475137	      7.84496883	     23.91850928	     22.41927190	     89.95437384	      0.00000000	      0.00000000
      0.01000000	     -6.19563246	     -1.34946711	     -4.08777273	     -1.02367477	      0.88686966	      1.10720546	     -6.27179147	     -2.64795535	    -22.43854195	    -17.04394865	     -0.29747302	      7.71307457	      5.07868131	     -2.42286439	     36.34061399	      4.43445715	     14.85354677	    -25.44585028	     -0.44411387	      5.89615222	     10.43421447	     -1.40881638	     -4.29341563	      2.45088365	      4.07073175	      3.20905029	    -16.64600232	    -18.44413414	     63.71163444	     89.95437384	      0.00000000	      0.00000000	    -11.00238823	      7.92556986	     24.36619195	     21.35561561	     89.95437384	      0.00000000	      0.00000000
      0.02000000	     -6.43012957	     -1.43984509	     -3.96558941	     -1.01093466	      0.88459977	      1.10746037	     -6.80876670	     -2.60969424	    -22.37564645	    -17.28360629	     -0.30165584	      7.55481344	      5.01034143	     -2.43091471	     37.08819392	      4.64861411	     15.36691468	    -24.43856408	     -0.42653341	      5.91602684	      9.88671662	     -1.45346553	     -4.02985314	      2.40180500	      3.89224571	      3.38388459	    -16.76602756	    -18.24041302	     64.89092899	     89.95437384	      0.00000000	      0.00000000	    -11.63374914	      8.02790246	     24.57662774	     20.77195356	     89.95437384	      0.00000000	      0.00000000
      0.03000000	     -6.40536496	     -1.29337899	     -4.37147761	     -0.99765350	      0.88288614	      1.10844211	     -7.45483638	     -3.01110599	    -21.97794796	    -17.76150271	     -0.30999670	      7.16478465	      5.23114878	     -2.92139137	     37.26100180	      5.12092440	     16.78190753	    -23.68416672	     -0.41336669	      5.49892269	      6.59477175	     -2.30034780	     -4.03526854	      2.03670724	      4.22116626	      3.41653316	    -16.84220814	    -18.00680169	     66.12348059	     89.95437384	      0.00000000	      0.00000000	    -11.88514354	      8.01745427	     26.00705783	     19.71601165	     89.95437384	      0.00000000	      0.00000000
      0.04000000	     -6.51602989	     -1.25911527	     -4.44452715	     -0.98410613	      0.88090209	      1.10866878	     -7.99817828	     -3.22738303	    -21.60202757	    -18.23762767	     -0.31830665	      6.70861692	      5.10216554	     -2.89012692	     37.64994909	      5.19124821	     16.88126351	    -23.40248842	     -0.40845048	      5.50055729	      6.38842319	     -2.31220439	     -3.82809209	      1.85543009	      4.21113981	      3.35305360	    -16.90255249	    -17.79556701	     67.22798606	     89.95437384	      0.00000000	      0.00000000	    -12.44704744	      8.11568100	     26.02619081	     19.18410112	     89.95437384	      0.00000000	      0.00000000
      0.05000000	     -6.33735994	     -1.08169904	     -4.90586190	     -0.97002178	      0.87950587	      1.10941517	     -8.72865530	     -3.68790905	    -20.90239727	    -18.79535659	     -0.32804086	      5.81990316	      4.98812681	     -2.89655888	     37.50512055	      5.27067840	     16.96939060	    -23.44750891	     -0.40923623	      5.73488850	      6.47631887	     -2.37525286	     -3.90544437	      1.47439118	      4.72160845	      3.10091204	    -16.85514211	    -17.90991584	     68.35048377	     89.95437384	      0.00000000	      0.00000000	    -12.69945424	      8.24863253	     26.20048925	     18.31737470	     89.95437384	      0.00000000	      0.00000000
      0.06000000	     -6.17256323	     -0.95148002	     -5.30225996	     -0.95557951	      0.87805080	      1.10997343	     -9.41952865	     -4.12147554	    -20.13409430	    -19.46403859	     -0.33971156	      5.00179780	      4.75431776	     -2.86181991	     37.40165191	      5.33116289	     16.80432220	    -24.01424742	     -0.41912768	      5.75252666	      7.17597640	     -2.32254772	     -3.92167701	      1.13809210	      5.07222665	      2.82706212	    -16.81784699	    -17.87959519	     69.29759972	     89.95437384	      0.00000000	      0.00000000	    -13.09525949	      8.31657953	     26.37350451	     17.78063271	     89.95437384	      0.00000000	      0.00000000
      0.07000000	     -6.00143228	     -0.79817615	     -5.70449836	     -0.94089285	      0.87668899	      1.11039700	    -10.02598716	     -4.60032440	    -19.24613158	    -20.25818412	     -0.35357201	      4.00329929	      4.33267385	     -2.75054159	     37.26978801	      5.29972277	     16.33613553	    -24.95361358	     -0.43552272	      5.60441844	      8.38273069	     -2.16937868	     -3.91294723	      0.78716309	      5.40742578	      2.46599515	    -16.72793549	    -17.83876431	     70.15653941	     89.95437384	      0.00000000	      0.00000000	    -13.44028860	      8.38037761	     26.50252333	     17.23155868	     89.95437384	      0.00000000	      0.00000000
      0.08000000	     -5.95641720	     -0.56275912	     -6.00346669	     -0.92605654	      0.87524111	      1.11044494	    -10.35560510	     -5.06661319	    -17.96722856	    -21.22982507	     -0.37053035	      2.81137723	      2.90745280	     -2.56903493	     37.11181097	      4.79875161	     14.91936759	    -25.86916224	     -0.45150206	      4.96620131	     11.56835434	     -1.65173111	     -3.72094646	      0.36169763	      5.62407950	      2.04890204	    -16.55971532	    -17.83788365	     70.82374746	     89.95437384	      0.00000000	      0.00000000	    -13.77426244	      8.39096291	     26.94053109	     16.80398381	     89.95437384	      0.00000000	      0.00000000
      0.09000000	     -5.75278337	     -0.47822995	     -6.34513740	     -0.91075135	      0.87396003	      1.11072352	    -10.78266919	     -5.50229838	    -17.08912358	    -22.36687897	     -0.39037568	      1.41303036	      2.36135410	     -2.30328510	     36.92627310	      4.84556699	     14.95696805	    -27.62915891	     -0.48221979	      2.94185315	     13.30816133	     -1.09024800	     -3.66185982	      0.06625956	      5.83705988	      1.58952650	    -16.43861100	    -17.67737650	     71.35959482	     89.95437384	      0.00000000	      0.00000000	    -14.21129224	      8.40941007	     26.95235330	     16.61565875	     89.95437384	      0.00000000	      0.00000000
